<?xml version="1.0" encoding="UTF-8"?>
<svg version="1.1" xmlns="http://www.w3.org/2000/svg" width="480" height="480">
<path d="M0 0 C2.6875 0.625 2.6875 0.625 5.0078125 3.875 C8.30933104 9.41283363 10.72588241 15.32998798 13.25 21.25 C18.71601127 33.79975049 24.88129968 45.75777893 31.6875 57.625 C32.50004155 59.07289335 33.31254401 60.52080864 34.125 61.96875 C41.04868034 74.11740236 49.0894121 82.77923466 60.6875 90.625 C62.54350038 91.9140304 64.39776229 93.20556875 66.25 94.5 C67.05566406 95.05429688 67.86132812 95.60859375 68.69140625 96.1796875 C70.6875 97.625 70.6875 97.625 72.6875 99.625 C73.0625 102.5625 73.0625 102.5625 72.6875 105.625 C69.72616746 108.51809314 67.3255306 109.06225335 63.265625 109.35546875 C62.24082031 109.43603516 61.21601563 109.51660156 60.16015625 109.59960938 C59.09667969 109.66986328 58.03320312 109.74011719 56.9375 109.8125 C55.85855469 109.89435547 54.77960938 109.97621094 53.66796875 110.06054688 C51.00845282 110.26059896 48.34865184 110.44828784 45.6875 110.625 C45.83372803 111.32995605 45.97995605 112.03491211 46.13061523 112.76123047 C46.80065186 116.00642967 47.46286746 119.25317927 48.125 122.5 C48.47014648 124.16289062 48.47014648 124.16289062 48.82226562 125.859375 C49.04462891 126.95507812 49.26699219 128.05078125 49.49609375 129.1796875 C49.70032959 130.17468262 49.90456543 131.16967773 50.11499023 132.19482422 C51.55067969 140.7967163 51.85594728 149.31427896 51.890625 158.0234375 C51.89759399 159.19881577 51.90456299 160.37419403 51.91174316 161.58518982 C51.92914083 165.39016307 51.93547192 169.19498853 51.9375 173 C51.93850708 174.30520599 51.93951416 175.61041199 51.94055176 176.95516968 C51.93040149 196.42771791 51.22750501 215.58476222 49.17138672 234.93896484 C48.26940043 243.52074672 47.53598632 252.11949446 46.77233887 260.71444702 C46.50711694 263.67067291 46.23353598 266.62601778 45.95800781 269.58129883 C45.79087902 271.41095758 45.62388064 273.24062825 45.45703125 275.0703125 C45.379048 275.8885701 45.30106476 276.7068277 45.22071838 277.54988098 C44.70878789 283.25365909 44.60384893 288.89983214 44.6875 294.625 C45.65171875 294.4084375 46.6159375 294.191875 47.609375 293.96875 C49.50429688 293.55109375 49.50429688 293.55109375 51.4375 293.125 C52.69046875 292.8465625 53.9434375 292.568125 55.234375 292.28125 C58.6875 291.625 58.6875 291.625 62.6875 291.625 C62.40375658 277.44253207 62.04529073 263.5874748 59.10791016 249.68457031 C58.31199965 245.78544077 57.66158426 241.86122807 57 237.9375 C56.86867676 237.1942749 56.73735352 236.4510498 56.60205078 235.68530273 C55.91179708 231.63504226 55.26314507 227.7270977 55.6875 223.625 C58.6875 221.625 58.6875 221.625 60.875 222 C61.473125 222.20625 62.07125 222.4125 62.6875 222.625 C62.76266846 220.64983398 62.76266846 220.64983398 62.83935547 218.63476562 C64.54182829 174.18812818 64.54182829 174.18812818 65.75 155 C65.82911621 153.72447266 65.90823242 152.44894531 65.98974609 151.13476562 C66.19795743 147.96227087 66.42983196 144.79381601 66.6875 141.625 C66.74534668 140.86477539 66.80319336 140.10455078 66.86279297 139.32128906 C67.05859375 137.4140625 67.05859375 137.4140625 67.6875 134.625 C70.6875 132.625 70.6875 132.625 73.3125 132.875 C74.488125 133.24625 74.488125 133.24625 75.6875 133.625 C76.87604569 136.00209137 76.75294136 137.239905 76.63671875 139.8828125 C76.57967773 141.25433472 76.57967773 141.25433472 76.52148438 142.65356445 C76.47314453 143.67538818 76.42480469 144.69721191 76.375 145.75 C76.32794922 146.83821045 76.28089844 147.9264209 76.23242188 149.04760742 C75.92368264 156.00615155 75.5698725 162.96208153 75.20703125 169.91796875 C73.70345016 198.80642117 72.42914876 227.68966083 72.6875 256.625 C72.97471924 255.68180908 73.26193848 254.73861816 73.55786133 253.7668457 C74.63021833 250.25173557 75.71138466 246.73938611 76.79516602 243.2277832 C77.26207466 241.71061315 77.72662477 240.19271508 78.1887207 238.67407227 C78.85522317 236.4851605 79.53030097 234.29904948 80.20703125 232.11328125 C80.41028519 231.43912674 80.61353912 230.76497223 80.82295227 230.07038879 C82.01603414 226.25045397 83.3240407 222.87326713 85.6875 219.625 C88.1875 219.125 88.1875 219.125 90.6875 219.625 C93.34808132 221.44537582 93.72409013 222.76359805 94.55981445 225.92919922 C94.80036434 227.30191722 95.0254762 228.6773956 95.23828125 230.0546875 C95.36133133 230.80144745 95.48438141 231.5482074 95.61116028 232.31759644 C96.92207727 240.57074513 97.80683101 248.87109016 98.62280273 257.18554688 C98.87828254 259.78337829 99.14452536 262.37995252 99.41210938 264.9765625 C99.58135064 266.65358323 99.74999296 268.33066454 99.91796875 270.0078125 C99.9960527 270.77143097 100.07413666 271.53504944 100.15458679 272.32180786 C100.58730693 276.78061114 100.76025603 281.14514875 100.6875 285.625 C110.28156516 284.47218557 118.98977372 281.65327089 128 278.3125 C130.61983575 277.35460937 133.24154976 276.40190675 135.86328125 275.44921875 C136.83337128 275.09563545 136.83337128 275.09563545 137.82305908 274.73490906 C148.36626063 270.9062707 158.9966114 267.41922156 169.8125 264.4375 C176.30523976 262.67899216 176.30523976 262.67899216 182.63671875 260.43359375 C185.35168952 259.36311956 186.94649431 259.73602518 189.6875 260.625 C190.3475 261.285 191.0075 261.945 191.6875 262.625 C191.45532763 267.35122188 190.28840452 269.6427983 186.93359375 272.90234375 C185.7744043 274.04413086 185.7744043 274.04413086 184.59179688 275.20898438 C183.77775391 275.98564453 182.96371094 276.76230469 182.125 277.5625 C181.33802734 278.33529297 180.55105469 279.10808594 179.74023438 279.90429688 C175.35176439 284.18423092 170.86747572 288.25756535 166.10571289 292.11938477 C164.34466857 293.64422925 164.34466857 293.64422925 164.6875 296.625 C165.3475 297.615 166.0075 298.605 166.6875 299.625 C166.3125 302.8125 166.3125 302.8125 165.6875 305.625 C161.37627813 306.6946196 159.38111141 306.99734247 155.3984375 304.859375 C154.27702266 304.04407295 153.16531731 303.21528725 152.0625 302.375 C145.12544822 297.50153127 137.79501271 294.18415698 129.08984375 294.8125 C122.8010297 296.93944849 118.56077664 303.73989028 115.62109375 309.4140625 C112.90711593 315.01431231 110.57273502 320.68696505 108.6875 326.625 C109.32099365 326.40996826 109.9544873 326.19493652 110.60717773 325.97338867 C138.1016092 316.71790962 166.16698046 308.19747804 194.8125 303.375 C196.63273682 303.06804199 196.63273682 303.06804199 198.48974609 302.75488281 C204.14824472 301.88685007 209.08975089 301.26124243 214.6875 302.625 C215.6875 303.625 215.6875 303.625 215.75 306.6875 C215.729375 307.656875 215.70875 308.62625 215.6875 309.625 C211.67380033 311.06187908 207.88353912 312.01241265 203.6640625 312.59765625 C185.70896733 315.24745784 168.64287023 319.36613312 151.26464844 324.56005859 C146.27308169 326.04608195 141.26193722 327.45961576 136.25 328.875 C131.40402 330.25528943 126.56523593 331.65604717 121.73828125 333.1015625 C120.94929443 333.33713867 120.16030762 333.57271484 119.34741211 333.81542969 C117.87180231 334.25752926 116.3972669 334.70323824 114.92407227 335.15332031 C112.06248579 336.01168949 109.69464647 336.625 106.6875 336.625 C106.56375 337.57375 106.44 338.5225 106.3125 339.5 C105.6875 342.625 105.6875 342.625 103.6875 344.625 C101.0625 344.25 101.0625 344.25 98.6875 343.625 C98.3575 342.635 98.0275 341.645 97.6875 340.625 C97.12764404 340.80675781 96.56778809 340.98851562 95.9909668 341.17578125 C93.45374582 341.99670103 90.91442272 342.81091791 88.375 343.625 C87.49392578 343.91117187 86.61285156 344.19734375 85.70507812 344.4921875 C84.85751953 344.76289063 84.00996094 345.03359375 83.13671875 345.3125 C82.35643311 345.56386719 81.57614746 345.81523437 80.7722168 346.07421875 C78.6875 346.625 78.6875 346.625 75.6875 346.625 C75.72230469 347.46804688 75.75710938 348.31109375 75.79296875 349.1796875 C75.82003906 350.27539062 75.84710938 351.37109375 75.875 352.5 C75.90980469 353.59054687 75.94460938 354.68109375 75.98046875 355.8046875 C75.88378906 356.73539062 75.78710938 357.66609375 75.6875 358.625 C72.6875 360.625 72.6875 360.625 70.125 360.5625 C67.6875 359.625 67.6875 359.625 66.375 357.3125 C65.6875 354.625 65.6875 354.625 65.6875 350.625 C60.5091928 352.43837938 55.3313932 354.25319828 50.15405273 356.06933594 C48.39377395 356.68659127 46.63335863 357.30345736 44.87280273 357.91992188 C42.33801603 358.80756252 39.80372836 359.6966152 37.26953125 360.5859375 C36.48600784 360.85997406 35.70248444 361.13401062 34.8952179 361.41635132 C27.85686288 363.3113277 27.85686288 363.3113277 22.4296875 367.46484375 C22.00042969 368.50318359 22.00042969 368.50318359 21.5625 369.5625 C20.31537775 372.51475843 19.2447236 374.62735709 16.6875 376.625 C14.56640625 377.20703125 14.56640625 377.20703125 12.25 377.4375 C11.48816406 377.52644531 10.72632813 377.61539062 9.94140625 377.70703125 C7.6875 377.625 7.6875 377.625 5.77734375 376.57421875 C2.69817695 375.17564392 0.93540853 375.75732768 -2.3125 376.625 C-5.03344384 377.77942608 -7.63715011 379.12065257 -10.25 380.5 C-14.57191333 382.74525659 -18.86312462 384.86337939 -23.35766602 386.74853516 C-38.83385953 393.68740548 -53.28084513 402.91175381 -67.34375 412.3125 C-73.77340941 416.6073452 -73.77340941 416.6073452 -76.7578125 418.53515625 C-77.36641113 418.930979 -77.97500977 419.32680176 -78.60205078 419.73461914 C-81.25842595 421.11740536 -83.40651526 421.10933079 -86.3125 420.625 C-86.9725 419.965 -87.6325 419.305 -88.3125 418.625 C-88.25 416.25 -88.25 416.25 -87.3125 413.625 C-84.13210012 410.84505636 -80.74910541 408.53490447 -77.17578125 406.29296875 C-76.21236816 405.68759277 -75.24895508 405.0822168 -74.25634766 404.45849609 C-73.28487793 403.85344238 -72.3134082 403.24838867 -71.3125 402.625 C-70.42481934 402.07021973 -69.53713867 401.51543945 -68.62255859 400.94384766 C-48.12904523 388.19931384 -27.23170174 376.72695193 -5.3125 366.625 C-5.69921875 365.88378906 -6.0859375 365.14257812 -6.484375 364.37890625 C-10.43585759 356.387913 -12.71784383 348.76834181 -14.55078125 340.08203125 C-15.12883927 336.78875732 -15.12883927 336.78875732 -16.3125 334.625 C-47.48011568 344.15862362 -78.09650203 355.02564835 -107.734375 368.6484375 C-116.465291 372.64814091 -125.28568071 376.2146299 -134.3125 379.5 C-135.35116211 379.8815625 -136.38982422 380.263125 -137.45996094 380.65625 C-145.70067185 383.59992829 -154.45552095 386.52877337 -163.3125 385.625 C-165.3125 384.4375 -165.3125 384.4375 -166.3125 382.625 C-166.3125 380.1875 -166.3125 380.1875 -165.3125 377.625 C-161.70036556 374.41494622 -157.71508663 371.93800923 -153.5625 369.5 C-152.90620605 369.11239502 -152.24991211 368.72479004 -151.57373047 368.32543945 C-150.18292375 367.50413702 -148.79147196 366.68392607 -147.39941406 365.86474609 C-145.39698067 364.67518634 -143.41187149 363.4612135 -141.4296875 362.23828125 C-103.37302132 338.95283381 -59.45416742 325.54518538 -17.3125 311.625 C-17.25497559 310.43616211 -17.19745117 309.24732422 -17.13818359 308.02246094 C-17.10360046 307.31375854 -17.06901733 306.60505615 -17.03338623 305.87487793 C-16.96274299 304.40148743 -16.89719171 302.92785064 -16.83447266 301.45410156 C-16.44302003 294.42212445 -16.44302003 294.42212445 -14.3125 291.625 C-10.63757887 288.80500844 -7.89813655 288.21560773 -3.3125 288.25 C-1.7965625 288.23839844 -1.7965625 288.23839844 -0.25 288.2265625 C5.52041703 288.81047375 11.06473214 290.23304788 16.6875 291.625 C16.57680176 290.4503418 16.46610352 289.27568359 16.35205078 288.06542969 C12.65801666 248.66197852 12.65801666 248.66197852 11.75 229.8125 C10.9078741 212.45344696 9.55286328 195.13652047 8.1875 177.8125 C8.0785334 176.42581245 7.96957536 175.03912423 7.86062622 173.6524353 C7.54467064 169.63660556 7.22598812 165.62099924 6.90625 161.60546875 C6.8037645 160.31831467 6.70127899 159.03116058 6.59568787 157.70500183 C6.12133995 151.80644592 5.62996616 145.91063254 5.0859375 140.01806641 C4.17918557 130.18524422 3.34595331 120.51087933 3.6875 110.625 C2.51654785 110.63547363 1.3455957 110.64594727 0.13916016 110.65673828 C-4.19560705 110.69287497 -8.53036089 110.71587733 -12.86523438 110.73486328 C-14.74318682 110.74493534 -16.62112353 110.75859362 -18.49902344 110.77587891 C-21.1947009 110.80007453 -23.89017146 110.81147083 -26.5859375 110.8203125 C-27.42869232 110.83063507 -28.27144714 110.84095764 -29.13973999 110.85159302 C-31.19871247 110.85199144 -33.25717935 110.74757588 -35.3125 110.625 C-37.3125 108.625 -37.3125 108.625 -37.625 105.625 C-37.521875 104.635 -37.41875 103.645 -37.3125 102.625 C-33.47577717 100.06718478 -30.36714013 100.37193544 -25.92578125 100.4296875 C-25.10877243 100.4325174 -24.29176361 100.43534729 -23.44999695 100.43826294 C-20.84151541 100.44945459 -18.2333777 100.4745571 -15.625 100.5 C-13.85612475 100.51003112 -12.08724412 100.51915674 -10.31835938 100.52734375 C-5.98294051 100.54939058 -1.64777855 100.5839133 2.6875 100.625 C2.56052734 99.57183594 2.43355469 98.51867187 2.30273438 97.43359375 C0.67096881 83.79811792 -0.68868228 70.14151102 -1.95556641 56.46777344 C-2.18121368 54.0384382 -2.40968676 51.60936231 -2.64208984 49.18066406 C-3.76572818 37.34405417 -4.49851816 25.58129719 -4.5625 13.6875 C-4.57176514 12.60807129 -4.58103027 11.52864258 -4.59057617 10.41650391 C-4.58646729 9.42440918 -4.5823584 8.43231445 -4.578125 7.41015625 C-4.57586914 6.53238525 -4.57361328 5.65461426 -4.57128906 4.75024414 C-4.18743988 1.59797326 -2.98728291 0.80737376 0 0 Z M4.6875 26.625 C5.30176392 33.76354604 5.91895757 40.90183286 6.5396328 48.03982449 C6.8279229 51.35626836 7.11501245 54.67280551 7.40039062 57.98950195 C8.62640637 72.23118044 9.90515942 86.44123363 11.6875 100.625 C18.6175 100.625 25.5475 100.625 32.6875 100.625 C32.6875 98.975 32.6875 97.325 32.6875 95.625 C35.3275 95.625 37.9675 95.625 40.6875 95.625 C41.0175 97.275 41.3475 98.925 41.6875 100.625 C46.9675 100.625 52.2475 100.625 57.6875 100.625 C55.16748873 98.60899098 52.64729565 96.59316646 50.1171875 94.58984375 C48.85261719 93.58630859 48.85261719 93.58630859 47.5625 92.5625 C46.71429688 91.89089844 45.86609375 91.21929687 44.9921875 90.52734375 C42.6875 88.625 42.6875 88.625 41.0078125 86.87890625 C39.74927333 85.39545444 39.74927333 85.39545444 37.6875 85.625 C37.34138672 84.85736328 37.34138672 84.85736328 36.98828125 84.07421875 C35.58067225 81.42385587 33.94080392 78.98253662 32.26049805 76.49902344 C21.76922025 60.88874154 13.19081952 43.85865169 5.6875 26.625 C5.3575 26.625 5.0275 26.625 4.6875 26.625 Z M12.6875 110.625 C12.41585104 120.54745333 13.16955289 130.22294571 14.11083984 140.08834839 C16.11810351 161.26317129 17.61638615 182.46368224 19.02910233 203.68429565 C20.51063241 225.92819096 22.03485649 248.16217497 23.9375 270.375 C24.02040283 271.3525827 24.10330566 272.33016541 24.1887207 273.33737183 C24.41861392 276.03258096 24.65325088 278.72731545 24.890625 281.421875 C24.95707214 282.19219559 25.02351929 282.96251617 25.09197998 283.75617981 C25.42505753 287.43634118 25.87068742 291.01933059 26.6875 294.625 C28.9975 295.285 31.3075 295.945 33.6875 296.625 C35.01495446 293.97009107 35.06326131 291.65746891 35.3359375 288.6953125 C35.45267822 287.44347168 35.56941895 286.19163086 35.68969727 284.90185547 C35.81421823 283.51792642 35.93847803 282.13397385 36.0625 280.75 C36.19379379 279.3126504 36.32522542 277.87531338 36.45678711 276.43798828 C36.87559626 271.83440776 37.28321925 267.22987687 37.6875 262.625 C37.75386658 261.86985107 37.82023315 261.11470215 37.88861084 260.33666992 C38.68478045 251.25197626 39.44966563 242.16516887 40.17103577 233.07421875 C40.53568946 228.48004466 40.92362115 223.88841991 41.3203125 219.296875 C42.58094638 203.83887334 42.89479372 188.43941259 42.9375 172.9375 C42.94276703 171.96830627 42.94803406 170.99911255 42.95346069 170.00054932 C43.02382349 153.30312026 42.1361076 136.86736853 38.625 120.5 C38.45162109 119.64019531 38.27824219 118.78039062 38.09960938 117.89453125 C37.58098756 113.93696016 37.58098756 113.93696016 35.6875 110.625 C33.97977642 110.53786169 32.26851351 110.51799993 30.55859375 110.52734375 C29.52412109 110.53056641 28.48964844 110.53378906 27.42382812 110.53710938 C26.33521484 110.54548828 25.24660156 110.55386719 24.125 110.5625 C23.03251953 110.56701172 21.94003906 110.57152344 20.81445312 110.57617188 C18.10541505 110.58800174 15.39648401 110.60448457 12.6875 110.625 Z M86.6875 242.625 C81.79157732 258.16522001 78.10758507 273.51114166 75.6875 289.625 C80.9675 288.635 86.2475 287.645 91.6875 286.625 C90.50172503 271.9415738 89.21108826 257.27738068 87.6875 242.625 C87.3575 242.625 87.0275 242.625 86.6875 242.625 Z M168.6875 274.625 C154.8275 279.08 154.8275 279.08 140.6875 283.625 C143.39585229 285.65626422 145.75267216 287.36117646 148.6875 288.9375 C149.3475 289.30488281 150.0075 289.67226563 150.6875 290.05078125 C152.67889869 290.81783416 152.67889869 290.81783416 154.62109375 290.04296875 C157.33353735 288.18168892 159.46821005 285.99283029 161.75 283.625 C164.34243955 280.94289712 166.57933762 278.69710825 169.6875 276.625 C169.3575 275.965 169.0275 275.305 168.6875 274.625 Z M107.5625 295.625 C106.65242188 295.99625 105.74234375 296.3675 104.8046875 296.75 C103.75667969 297.183125 103.75667969 297.183125 102.6875 297.625 C102.80159593 299.08422693 102.92915544 300.54240598 103.0625 302 C103.13210938 302.81210937 103.20171875 303.62421875 103.2734375 304.4609375 C103.51642588 306.82834191 103.51642588 306.82834191 105.6875 308.625 C106.16960937 307.79355469 106.65171875 306.96210938 107.1484375 306.10546875 C107.78007812 305.01878906 108.41171875 303.93210937 109.0625 302.8125 C110.00222656 301.19408203 110.00222656 301.19408203 110.9609375 299.54296875 C112.14805346 297.53668907 113.39439373 295.56465941 114.6875 293.625 C111.98566945 293.625 110.05760212 294.60136836 107.5625 295.625 Z M-6.3125 297.625 C-7.74918294 301.4860854 -8.42435208 304.521427 -8.3125 308.625 C-0.04684184 307.36610216 7.74714735 305.22549705 15.6875 302.625 C15.6875 301.965 15.6875 301.305 15.6875 300.625 C13.33491656 300.11633331 10.98088596 299.6179375 8.625 299.125 C7.96822266 298.98191406 7.31144531 298.83882813 6.63476562 298.69140625 C2.25610012 297.78547545 -1.81668704 297.48468854 -6.3125 297.625 Z M87.45703125 301.83984375 C86.25336914 302.25073242 86.25336914 302.25073242 85.02539062 302.66992188 C84.19201172 302.96447266 83.35863281 303.25902344 82.5 303.5625 C81.65501953 303.85318359 80.81003906 304.14386719 79.93945312 304.44335938 C77.85254771 305.16257537 75.76890006 305.8900343 73.6875 306.625 C73.47991268 322.15557927 73.47991268 322.15557927 74.6875 337.625 C77.41757934 336.8363773 80.14654834 336.04421814 82.875 335.25 C83.64392578 335.02828125 84.41285156 334.8065625 85.20507812 334.578125 C89.12158779 333.4351093 92.93106051 332.23597806 96.6875 330.625 C97.00751346 320.86458934 95.80056313 311.30467405 94.6875 301.625 C91.32695043 300.50481681 90.67026729 300.72318726 87.45703125 301.83984375 Z M26.6875 308.625 C26.6875 309.285 26.6875 309.945 26.6875 310.625 C28.6675 310.295 30.6475 309.965 32.6875 309.625 C32.6875 308.965 32.6875 308.305 32.6875 307.625 C30.53115964 307.625 28.76303648 308.0715236 26.6875 308.625 Z M8.703125 313.15625 C7.76855469 313.47207031 6.83398438 313.78789062 5.87109375 314.11328125 C4.90300781 314.44714844 3.93492187 314.78101563 2.9375 315.125 C1.95394531 315.45886719 0.97039062 315.79273438 -0.04296875 316.13671875 C-2.46803614 316.96077077 -4.89105718 317.79036963 -7.3125 318.625 C-6.9825 319.615 -6.6525 320.605 -6.3125 321.625 C-2.49402636 320.54080796 1.31596718 319.42936685 5.125 318.3125 C6.21361328 318.00376953 7.30222656 317.69503906 8.42382812 317.37695312 C9.45830078 317.07080078 10.49277344 316.76464844 11.55859375 316.44921875 C12.51693115 316.17166748 13.47526855 315.89411621 14.46264648 315.6081543 C15.19684814 315.28371338 15.9310498 314.95927246 16.6875 314.625 C17.0175 313.635 17.3475 312.645 17.6875 311.625 C14.03894088 311.625 12.06807315 312.00724332 8.703125 313.15625 Z M41.6875 315.625 C41.0275 326.515 40.3675 337.405 39.6875 348.625 C43.22643654 347.91721269 46.20172744 347.18446768 49.55078125 345.99609375 C50.35040283 345.71435303 51.15002441 345.4326123 51.97387695 345.14233398 C53.47180786 344.60781616 53.47180786 344.60781616 55 344.0625 C58.196875 342.928125 61.39375 341.79375 64.6875 340.625 C64.1925 328.25 64.1925 328.25 63.6875 315.625 C52.6875 311.625 52.6875 311.625 41.6875 315.625 Z M26.6875 320.625 C26.3575 331.845 26.0275 343.065 25.6875 354.625 C27.3375 353.965 28.9875 353.305 30.6875 352.625 C31.02436543 348.0835881 31.35637125 343.5418335 31.6875 339 C31.83058594 337.07220703 31.83058594 337.07220703 31.9765625 335.10546875 C32.06679687 333.86152344 32.15703125 332.61757813 32.25 331.3359375 C32.33378906 330.19431152 32.41757813 329.05268555 32.50390625 327.87646484 C32.67851731 324.78408432 32.72031022 321.72146463 32.6875 318.625 C30.57931489 318.625 28.64490073 319.84203971 26.6875 320.625 Z M-17.3125 321.625 C-46.00094925 330.98368405 -74.53692709 340.78973819 -102.3125 352.625 C-103.07884766 352.94839355 -103.84519531 353.27178711 -104.63476562 353.60498047 C-112.41238015 356.89279024 -120.06482096 360.25626013 -127.3125 364.625 C-124.09469774 365.70504834 -122.50526224 365.6071691 -119.44140625 364.18359375 C-118.70083984 363.84650391 -117.96027344 363.50941406 -117.19726562 363.16210938 C-116.43091797 362.79923828 -115.66457031 362.43636719 -114.875 362.0625 C-114.14345703 361.72669922 -113.41191406 361.39089844 -112.65820312 361.04492188 C-109.18074774 359.44475603 -105.71718463 357.81531255 -102.25317383 356.1862793 C-94.87830345 352.74371608 -87.45025518 349.53780573 -79.875 346.5625 C-78.7092041 346.10423828 -77.5434082 345.64597656 -76.34228516 345.17382812 C-65.72253728 341.04311168 -54.97051058 337.30458663 -44.1875 333.625 C-43.36976105 333.34582733 -42.55202209 333.06665466 -41.70950317 332.77902222 C-33.28836113 329.91138273 -24.86869302 327.06886096 -16.3125 324.625 C-16.8075 323.14 -16.8075 323.14 -17.3125 321.625 Z M5.75 326.5 C4.83025391 326.76941406 3.91050781 327.03882813 2.96289062 327.31640625 C1.63741211 327.71279297 1.63741211 327.71279297 0.28515625 328.1171875 C-0.92901978 328.47852783 -0.92901978 328.47852783 -2.16772461 328.84716797 C-4.56103952 329.61895506 -4.56103952 329.61895506 -7.3125 331.625 C-3.67035222 347.83669288 -3.67035222 347.83669288 3.6875 362.625 C5.90861387 362.31640522 5.90861387 362.31640522 8.6875 361.625 C9.904375 361.3775 11.12125 361.13 12.375 360.875 C14.91535963 359.687658 15.56064062 358.95494567 16.578125 356.30859375 C18.52956179 345.61750788 17.87689274 334.44515285 17.6875 323.625 C13.61934784 323.625 9.62048221 325.33858524 5.75 326.5 Z " fill="#FFFFFF" transform="translate(215.3125,29.375)"/>
</svg>
