<svg xmlns="http://www.w3.org/2000/svg" viewBox="0 0 360 360"><path d="M147.87 93.547c3.026 2.066 5.015 4.807 7.191 7.703l2.899 3.774 1.503 1.971c2.542 3.319 5.135 6.597 7.723 9.88l2.793 3.555L172 123l-2 4h-22v93h12v-85l4-1c2.007 2.008 1.185 6.071 1.205 8.825l.03 2.483q.046 4.082.081 8.165.03 2.822.063 5.645.082 7.446.153 14.89.077 7.591.161 15.182.161 14.906.307 29.811l8-31 5 1c1.537 3.075 1.336 6.369 1.5 9.75q.104 2.118.219 4.235l.091 1.897c.244 2.724.74 5.42 1.19 8.118l4-24h5l1 27c2.22-8.464 2.22-8.464 4.427-16.933l.846-3.184.857-3.269c.87-2.613.87-2.613 2.87-4.613l4 1v34l16-3c4.351-.706 8.699-1.394 13.059-2.043l3.499-.526q3.612-.54 7.226-1.076c3.671-.546 7.341-1.102 11.011-1.658q3.538-.528 7.076-1.053l3.287-.502c6.022-.88 11.756-1.31 17.842-1.142l1 3c-2.705 2.704-5.425 2.731-9.064 3.236l-2.203.326c-2.409.355-4.82.697-7.23 1.04q-2.506.363-5.014.73-5.258.767-10.519 1.518-6.747.966-13.49 1.95a11835 11835 0 0 1-22.286 3.222l-2.083.302c-2.738.388-5.34.676-8.11.676l1 10 2.212-.653a7296 7296 0 0 1 20.658-6.049q5.313-1.547 10.62-3.11 5.123-1.51 10.251-2.996 1.956-.57 3.909-1.15a738 738 0 0 1 5.48-1.595l3.149-.922c2.704-.522 4.162-.45 6.72.475v4a21486 21486 0 0 1-21.046 6.154q-4.89 1.427-9.776 2.859-5.633 1.65-11.267 3.291l-3.505 1.03-3.335.97-2.9.848c-4.025 1.076-8.103 1.944-12.17 2.848v34l-5 1c-1.816-1.309-1.816-1.309-3.562-3.438l-2.055-2.465a315 315 0 0 1-5.39-7.226l-1.592-2.18a264 264 0 0 1-3.1-4.369l-1.469-2.041-1.29-1.842c-2.11-1.97-3.691-2.091-6.542-2.44-2.553.392-2.553.392-5.172 1.229l-3.064.893-3.3 1-3.452 1.016q-3.653 1.078-7.301 2.17c-3.773 1.13-7.55 2.246-11.327 3.359a8591 8591 0 0 0-18.203 5.39 3469 3469 0 0 1-20.243 5.944l-3.245.966c-4.684 1.36-8.757 2.433-13.693 2.034v-4c11.06-3.593 22.177-6.99 33.336-10.26q2.098-.615 4.194-1.236 2.98-.88 5.966-1.747l3.505-1.027c2.999-.73 2.999-.73 6.999-.73l-.875-1.68-1.125-2.196-1.125-2.18c-.875-1.945-.875-1.945-.875-3.945l-2.68.217c-14.62 1.028-29.233.894-43.883.846q-4.002-.008-8.006-.014Q71.716 249.033 62 249v-5a1158 1158 0 0 1 34.988-5.79c2.67-.402 5.34-.813 8.009-1.224l5.168-.779 2.38-.37c4.541-.672 8.865-.954 13.456-.837l-1.129-1.758-1.433-2.367-1.442-2.32C121 226 121 226 122 220h21v-93h-22v-4h22v-29c3-1 3-1 4.871-.453zm.129 8.453v21h17a1731 1731 0 0 0-11.312-15l-1.347-1.782A195 195 0 0 0 149 102zm27 105c-2.102 5.712-3.385 10.948-4 17-.302 1.34-.615 2.68-1 4l7-1-1-20zm24 2a855 855 0 0 0-1.5 5.25l-.844 2.953c-.808 2.967-.808 2.967-.656 6.797h4v-15zm-72 16 5 9 11-2v-7zm21 0v6l12-1v-5zm46 4-3 10-5 1v-9l-2 1c-.468 2.586-.468 2.586-.625 5.563l-.227 3.066L183 243h-5l2 3q3.877-.93 7.75-1.875l2.21-.527 2.15-.528 1.967-.476c2.335-.664 2.335-.664 5.923-2.594v-11zm-26 4c-1.316 3.62-2 6.096-2 10h12l-1-11c-3.112 0-5.942.456-9 1m-20 3v7h12v-8c-4.136-.098-7.936.226-12 1m-13 2c1.138 2.592 1.138 2.592 3 5 2.627.418 2.627.418 5 0v-6c-2.84 0-5.237.403-8 1m-15.297 1.875-3.652.547-3.801.578-3.848.578Q103.7 242.286 99 243v1c11.056.1 21.989.125 33-1l-2-4c-3.585 0-6.763.342-10.297.875zM189.749 248l-3.266 1.125L184 250a152 152 0 0 0 15 20h1v-24c-4.02 0-6.492.693-10.25 2m-48.75 0 2 2v-2zm7 0v7q3.782-.935 7.562-1.875l2.135-.527A345 345 0 0 0 171 249v-1z"/></svg>
