<svg xmlns="http://www.w3.org/2000/svg" viewBox="0 0 480 480" style="height:90px; aspect-ratio:1/1; margin:0 auto;"><path fill="currentColor" d="M215.313 29.375C218 30 218 30 220.32 33.25c3.302 5.538 5.718 11.455 8.243 17.375C234.029 63.175 240.193 75.133 247 87l2.438 4.344C256.36 103.492 264.402 112.154 276 120a2327 2327 0 0 1 5.563 3.875l2.44 1.68C286 127 286 127 288 129c.375 2.938.375 2.938 0 6-2.961 2.893-5.362 3.437-9.422 3.73l-3.105.245-3.223.213-3.27.248q-3.989.3-7.98.564l.443 2.136c.67 3.245 1.332 6.492 1.995 9.739l.697 3.36.674 3.32.618 3.015c1.436 8.602 1.741 17.12 1.776 25.828l.021 3.562q.025 5.708.026 11.415l.003 3.955c-.01 19.473-.713 38.63-2.77 57.984-.901 8.582-1.635 17.18-2.398 25.775q-.4 4.435-.814 8.867l-.501 5.49-.237 2.479c-.512 5.704-.617 11.35-.533 17.075l2.922-.656 3.828-.844 3.797-.844C274 321 274 321 278 321c-.284-14.182-.642-28.038-3.58-41.94-.796-3.9-1.446-7.824-2.108-11.748l-.397-2.252c-.69-4.05-1.34-7.958-.915-12.06 3-2 3-2 5.188-1.625L278 252l.152-3.99c1.702-44.447 1.702-44.447 2.91-63.635l.24-3.865q.312-4.758.698-9.51l.175-2.304c.196-1.907.196-1.907.825-4.696 3-2 3-2 5.625-1.75L291 163c1.189 2.377 1.065 3.615.95 6.258l-.116 2.77-.147 3.097-.142 3.298c-.309 6.958-.663 13.914-1.025 20.87-1.504 28.888-2.778 57.772-2.52 86.707l.87-2.858q1.61-5.272 3.238-10.54.7-2.274 1.393-4.553a1468 1468 0 0 1 2.019-6.56l.615-2.044c1.194-3.82 2.502-7.197 4.865-10.445 2.5-.5 2.5-.5 5 0 2.66 1.82 3.037 3.139 3.872 6.304q.36 2.06.679 4.126l.373 2.263c1.31 8.253 2.195 16.553 3.011 24.868q.386 3.896.79 7.79l.505 5.032.237 2.314c.433 4.459.606 8.823.533 13.303 9.594-1.153 18.302-3.972 27.313-7.312q3.93-1.436 7.863-2.864l1.96-.714c10.543-3.829 21.173-7.316 31.989-10.298 6.493-1.758 6.493-1.758 12.824-4.003 2.715-1.07 4.31-.698 7.051.191l2 2c-.232 4.726-1.4 7.018-4.754 10.277l-2.342 2.307-2.466 2.353-2.385 2.342c-4.389 4.28-8.873 8.354-13.635 12.215-1.76 1.525-1.76 1.525-1.418 4.506l2 3c-.375 3.188-.375 3.188-1 6-4.311 1.07-6.306 1.372-10.29-.766a185 185 0 0 1-3.335-2.484c-6.937-4.873-14.267-8.19-22.973-7.562-6.288 2.126-10.529 8.927-13.468 14.601-2.714 5.6-5.049 11.273-6.934 17.211l1.92-.652c27.494-9.255 55.56-17.776 84.205-22.598l3.677-.62c5.659-.868 10.6-1.494 16.198-.13 1 1 1 1 1.063 4.063L431 339c-4.014 1.437-7.804 2.387-12.023 2.973-17.956 2.65-35.022 6.768-52.4 11.962-4.991 1.486-10.003 2.9-15.014 4.315-4.846 1.38-9.685 2.781-14.512 4.227l-2.391.713q-2.214.664-4.423 1.338c-2.862.859-5.23 1.472-8.237 1.472l-.375 2.875C321 372 321 372 319 374c-2.625-.375-2.625-.375-5-1l-1-3-1.697.55q-3.806 1.231-7.615 2.45l-2.67.867-2.569.82-2.364.762C294 376 294 376 291 376l.105 2.555.082 3.32.106 3.305L291 388c-3 2-3 2-5.562 1.938-2.438-.938-2.438-.938-3.75-3.25C281 384 281 384 281 380a30899 30899 0 0 0-20.815 7.295l-7.603 2.666-2.374.83c-7.039 1.895-7.039 1.895-12.466 6.049l-.867 2.098c-1.247 2.952-2.318 5.064-4.875 7.062-2.121.582-2.121.582-4.437.813l-2.31.269C223 407 223 407 221.09 405.949c-3.08-1.398-4.842-.817-8.09.051-2.72 1.154-5.325 2.496-7.937 3.875-4.322 2.245-8.614 4.363-13.108 6.249-15.476 6.938-29.923 16.163-43.986 25.563-6.43 4.295-6.43 4.295-9.414 6.223l-1.845 1.2c-2.656 1.382-4.804 1.374-7.71.89l-2-2c.063-2.375.063-2.375 1-5 3.18-2.78 6.563-5.09 10.137-7.332l2.92-1.835L144 432l2.69-1.681C167.183 417.574 188.08 406.102 210 396l-1.172-2.246c-3.951-7.991-6.233-15.61-8.066-24.297-.578-3.293-.578-3.293-1.762-5.457-31.168 9.534-61.784 20.4-91.422 34.023-8.73 4-17.551 7.567-26.578 10.852l-3.147 1.156C69.612 412.975 60.857 415.904 52 415c-2-1.187-2-1.187-3-3 0-2.437 0-2.437 1-5 3.612-3.21 7.597-5.687 11.75-8.125l1.989-1.175q2.085-1.23 4.174-2.46a417 417 0 0 0 5.97-3.627C111.939 368.328 155.858 354.92 198 341l.174-3.603.105-2.147q.105-2.21.199-4.42c.391-7.033.391-7.033 2.522-9.83 3.675-2.82 6.414-3.41 11-3.375l3.063-.023c5.77.583 11.314 2.006 16.937 3.398l-.335-3.56c-3.694-39.403-3.694-39.403-4.602-58.252-.843-17.36-2.198-34.676-3.563-52l-.327-4.16q-.475-6.024-.954-12.048l-.31-3.9a1502 1502 0 0 0-1.51-17.687c-.907-9.833-1.74-19.507-1.399-29.393-1.171.01-2.342.02-3.548.032-4.335.036-8.67.059-13.005.078q-2.817.016-5.634.04c-2.695.025-5.39.036-8.086.045l-2.554.032c-2.06 0-4.118-.104-6.173-.227-2-2-2-2-2.312-5l.312-3c3.837-2.558 6.945-2.253 11.387-2.195l2.476.008c2.608.011 5.216.037 7.825.062q2.652.016 5.306.027 6.503.035 13.006.098l-.385-3.191c-1.632-13.636-2.991-27.292-4.258-40.966q-.338-3.645-.687-7.287c-1.123-11.837-1.856-23.6-1.92-35.493l-.028-3.271.012-3.007.007-2.66c.384-3.152 1.584-3.943 4.571-4.75M220 56q.92 10.708 1.852 21.415.433 4.974.86 9.95c1.227 14.241 2.506 28.451 4.288 42.635h21v-5h8l1 5h16c-2.52-2.016-5.04-4.032-7.57-6.035l-2.555-2.028-2.57-2.035C258 118 258 118 256.32 116.254c-1.258-1.484-1.258-1.484-3.32-1.254l-.7-1.55c-1.407-2.651-3.047-5.092-4.727-7.576C237.082 90.264 228.503 73.234 221 56zm8 84c-.272 9.922.482 19.598 1.423 29.463 2.008 21.175 3.506 42.376 4.919 63.596 1.481 22.244 3.005 44.478 4.908 66.691l.251 2.962q.346 4.043.702 8.085l.201 2.334c.334 3.68.78 7.263 1.596 10.869l7 2c1.327-2.655 1.376-4.968 1.648-7.93l.354-3.793.373-4.152.394-4.312c.42-4.604.827-9.208 1.231-13.813l.201-2.288c.796-9.085 1.561-18.172 2.283-27.263.364-4.594.752-9.186 1.149-13.777 1.26-15.458 1.574-30.858 1.617-46.36l.016-2.936c.07-16.698-.817-33.134-4.329-49.501l-.525-2.605c-.519-3.958-.519-3.958-2.412-7.27a91 91 0 0 0-5.129-.098l-3.135.01-3.298.025-3.311.014q-4.064.018-8.127.049m74 132c-4.896 15.54-8.58 30.886-11 47l16-3c-1.186-14.683-2.476-29.348-4-44zm82 32-28 9c2.708 2.031 5.065 3.736 8 5.313l2 1.113c1.991.767 1.991.767 3.934-.008 2.712-1.861 4.847-4.05 7.128-6.418 2.593-2.682 4.83-4.928 7.938-7zm-61.125 21-2.758 1.125L318 327c.114 1.46.242 2.917.375 4.375.07.812.14 1.624.21 2.46.244 2.368.244 2.368 2.415 4.165l1.46-2.52c.633-1.086 1.264-2.173 1.915-3.293l1.898-3.269A130 130 0 0 1 330 323c-2.702 0-4.63.976-7.125 2M209 327c-1.437 3.861-2.112 6.896-2 11 8.266-1.259 16.06-3.4 24-6v-2a1081 1081 0 0 0-7.062-1.5l-1.99-.434c-4.38-.906-8.452-1.206-12.948-1.066m93.77 4.215-2.432.83-2.526.892-2.56.881q-3.13 1.08-6.252 2.182c-.208 15.53-.208 15.53 1 31q4.095-1.183 8.188-2.375l2.33-.672c3.916-1.143 7.726-2.342 11.482-3.953.32-9.76-.887-19.32-2-29-3.36-1.12-4.017-.902-7.23.215M242 338v2l6-1v-2c-2.156 0-3.924.447-6 1m-17.984 4.531-2.832.957-2.934 1.012-2.98 1.012A1760 1760 0 0 0 208 348l1 3c3.818-1.084 7.628-2.196 11.438-3.312 1.088-.31 2.177-.618 3.298-.936l3.135-.928 2.904-.84L232 344l1-3c-3.649 0-5.62.382-8.984 1.531M257 345l-2 33c3.539-.708 6.514-1.44 9.863-2.629l2.423-.854 3.026-1.08L280 370l-1-25c-11-4-11-4-22 0m-15 5-1 34 5-2q.505-6.812 1-13.625l.29-3.895.273-3.77.253-3.459c.175-3.092.217-6.155.184-9.251-2.108 0-4.043 1.217-6 2m-44 1c-28.688 9.359-57.224 19.165-85 31l-2.322.98C102.9 386.268 95.248 389.631 88 394c3.218 1.08 4.807.982 7.871-.441l2.244-1.022 2.323-1.1 2.216-1.017c3.478-1.6 6.941-3.23 10.405-4.859a389 389 0 0 1 22.379-9.623l3.532-1.39c10.62-4.13 21.372-7.868 32.155-11.548l2.478-.846c8.421-2.868 16.84-5.71 25.397-8.154zm23.063 4.875-2.788.816-2.677.801-2.453.73c-2.394.772-2.394.772-5.145 2.778 3.642 16.212 3.642 16.212 11 31 2.221-.309 2.221-.309 5-1l3.688-.75c2.54-1.187 3.185-1.92 4.203-4.566 1.951-10.691 1.298-21.864 1.109-32.684-4.068 0-8.067 1.714-11.937 2.875"/></svg>
